<svg xmlns="http://www.w3.org/2000/svg" width="35" height="35" viewBox="0 0 35 35">
  <g id="cancle" transform="translate(-648 -643)">
    <rect id="Rectangle_11" data-name="Rectangle 11" width="35" height="35" transform="translate(648 643)" fill="none"/>
    <g id="cancel" transform="translate(656.084 651.977)">
      <path id="Path_21" data-name="Path 21" d="M6.586,24.18a.635.635,0,0,0,.9,0l7.9-7.9,7.9,7.9a.619.619,0,0,0,.448.186.646.646,0,0,0,.448-.186.635.635,0,0,0,0-.9l-7.9-7.9,7.9-7.9a.634.634,0,0,0-.9-.9l-7.9,7.9-7.9-7.9a.634.634,0,0,0-.9.9l7.9,7.9-7.9,7.9A.635.635,0,0,0,6.586,24.18Z" transform="translate(-6.4 -6.4)" fill="#c7ab50"/>
    </g>
  </g>
</svg>
