<svg xmlns="http://www.w3.org/2000/svg" width="30" height="30" viewBox="0 0 30 30">
  <g id="dienthoai" transform="translate(-811 -77)">
    <rect id="Rectangle_20" data-name="Rectangle 20" width="30" height="30" transform="translate(811 77)" fill="none"/>
    <g id="phone-call_1_" data-name="phone-call (1)" transform="translate(816.274 82.314)">
      <g id="Group_23" data-name="Group 23">
        <g id="Group_22" data-name="Group 22">
          <g id="Group_21" data-name="Group 21">
            <path id="Path_29" data-name="Path 29" d="M20.324,16.326l-4.017-2.679a1.172,1.172,0,0,0-1.57.255l-1.17,1.5a.5.5,0,0,1-.641.135l-.223-.123A13.45,13.45,0,0,1,9.2,12.666,13.5,13.5,0,0,1,6.445,9.161l-.122-.223a.5.5,0,0,1,.132-.644l1.5-1.17a1.173,1.173,0,0,0,.255-1.57L5.535,1.539a1.166,1.166,0,0,0-1.572-.354L2.284,2.194A2.369,2.369,0,0,0,1.2,3.6C.6,5.8,1.054,9.6,6.656,15.206c4.457,4.456,7.775,5.655,10.055,5.655a5.859,5.859,0,0,0,1.554-.2,2.367,2.367,0,0,0,1.4-1.08l1.01-1.679A1.166,1.166,0,0,0,20.324,16.326Zm-.216,1.233L19.1,19.239a1.709,1.709,0,0,1-1.009.782c-2.034.559-5.589.1-10.967-5.283S1.283,5.806,1.841,3.771a1.712,1.712,0,0,1,.783-1.01L4.3,1.753a.506.506,0,0,1,.682.153L6.441,4.091,7.662,5.923a.509.509,0,0,1-.11.681l-1.5,1.17a1.157,1.157,0,0,0-.307,1.485l.119.217a14.029,14.029,0,0,0,2.866,3.657A14.043,14.043,0,0,0,12.385,16l.217.12a1.157,1.157,0,0,0,1.485-.307l1.17-1.5a.509.509,0,0,1,.681-.11l4.016,2.679A.506.506,0,0,1,20.108,17.56Z" transform="translate(-1 -1.018)" fill="#5d5d5d"/>
            <path id="Path_30" data-name="Path 30" d="M282.959,69.985a5.628,5.628,0,0,1,5.622,5.622.331.331,0,1,0,.661,0,6.29,6.29,0,0,0-6.283-6.283.331.331,0,1,0,0,.661Z" transform="translate(-271.714 -66.677)" fill="#5d5d5d"/>
            <path id="Path_31" data-name="Path 31" d="M282.959,121.185a3.642,3.642,0,0,1,3.638,3.638.331.331,0,0,0,.661,0,4.3,4.3,0,0,0-4.3-4.3.331.331,0,1,0,0,.661Z" transform="translate(-271.714 -115.893)" fill="#5d5d5d"/>
            <path id="Path_32" data-name="Path 32" d="M282.959,172.385a1.655,1.655,0,0,1,1.653,1.653.331.331,0,0,0,.661,0,2.318,2.318,0,0,0-2.315-2.315.331.331,0,1,0,0,.661Z" transform="translate(-271.714 -165.109)" fill="#5d5d5d"/>
          </g>
        </g>
      </g>
    </g>
  </g>
</svg>
