<svg xmlns="http://www.w3.org/2000/svg" width="62" height="62" viewBox="0 0 62 62">
  <g id="duanbatdongsan" transform="translate(-931 -196)">
    <rect id="Rectangle_12" data-name="Rectangle 12" width="62" height="62" transform="translate(931 196)" fill="none"/>
    <g id="_010-courthouse" data-name="010-courthouse" transform="translate(931.664 201.438)">
      <g id="Group_317" data-name="Group 317" transform="translate(6.616 0)">
        <g id="Group_316" data-name="Group 316" transform="translate(0)">
          <path id="Path_75" data-name="Path 75" d="M53.771,13.749,31.024.148a1.1,1.1,0,0,0-1.1,0L7.155,13.749a1.1,1.1,0,0,0-.539.946V18a1.1,1.1,0,0,0,1.1,1.1H53.209a1.1,1.1,0,0,0,1.1-1.1V14.7A1.1,1.1,0,0,0,53.771,13.749ZM8.817,16.9V15.29L30.463,2.371,52.109,15.29V16.9Z" transform="translate(-6.616 0)" fill="#314870"/>
        </g>
      </g>
      <g id="Group_319" data-name="Group 319" transform="translate(9.873 20.99)">
        <g id="Group_318" data-name="Group 318" transform="translate(0)">
          <path id="Path_76" data-name="Path 76" d="M36.811,152.592H31.4a1.1,1.1,0,0,0-1.1,1.1v18.62a1.1,1.1,0,0,0,1.1,1.1h5.414a1.1,1.1,0,0,0,1.1-1.1v-18.62A1.1,1.1,0,0,0,36.811,152.592Zm-1.1,18.62H32.5V154.793H35.71Z" transform="translate(-30.296 -152.592)" fill="#314870"/>
        </g>
      </g>
      <g id="Group_321" data-name="Group 321" transform="translate(26.655 20.99)">
        <g id="Group_320" data-name="Group 320">
          <path id="Path_77" data-name="Path 77" d="M158.811,152.592H153.4a1.1,1.1,0,0,0-1.1,1.1v18.62a1.1,1.1,0,0,0,1.1,1.1h5.414a1.1,1.1,0,0,0,1.1-1.1v-18.62A1.1,1.1,0,0,0,158.811,152.592Zm-1.1,18.62H154.5V154.793h3.213Z" transform="translate(-152.296 -152.592)" fill="#314870"/>
        </g>
      </g>
      <g id="Group_323" data-name="Group 323" transform="translate(43.437 20.99)">
        <g id="Group_322" data-name="Group 322">
          <path id="Path_78" data-name="Path 78" d="M280.811,152.592H275.4a1.1,1.1,0,0,0-1.1,1.1v18.62a1.1,1.1,0,0,0,1.1,1.1h5.414a1.1,1.1,0,0,0,1.1-1.1v-18.62A1.1,1.1,0,0,0,280.811,152.592Zm-1.1,18.62H276.5V154.793h3.213Z" transform="translate(-274.296 -152.592)" fill="#314870"/>
        </g>
      </g>
      <g id="Group_325" data-name="Group 325" transform="translate(25.973 6.596)">
        <g id="Group_324" data-name="Group 324">
          <path id="Path_79" data-name="Path 79" d="M151.826,47.952a4.49,4.49,0,1,0,4.49,4.49A4.5,4.5,0,0,0,151.826,47.952Zm.011,6.779a2.289,2.289,0,1,1,2.278-2.289h.011A2.289,2.289,0,0,1,151.837,54.731Z" transform="translate(-147.336 -47.952)" fill="#314870"/>
        </g>
      </g>
      <g id="Group_327" data-name="Group 327" transform="translate(9.191 43.649)">
        <g id="Group_326" data-name="Group 326" transform="translate(0)">
          <path id="Path_80" data-name="Path 80" d="M66.779,317.312H26.436a1.1,1.1,0,0,0,0,2.2H66.779a1.1,1.1,0,0,0,0-2.2Z" transform="translate(-25.336 -317.312)" fill="#314870"/>
        </g>
      </g>
      <g id="Group_329" data-name="Group 329" transform="translate(6.616 47.313)">
        <g id="Group_328" data-name="Group 328" transform="translate(0)">
          <path id="Path_81" data-name="Path 81" d="M53.209,343.952H7.716a1.1,1.1,0,0,0,0,2.2H53.209a1.1,1.1,0,0,0,0-2.2Z" transform="translate(-6.616 -343.952)" fill="#314870"/>
        </g>
      </g>
    </g>
  </g>
</svg>
