<svg xmlns="http://www.w3.org/2000/svg" width="62" height="62" viewBox="0 0 62 62">
  <g id="hinhsu" transform="translate(-847 -187)">
    <rect id="Rectangle_12" data-name="Rectangle 12" width="62" height="62" transform="translate(847 187)" fill="none"/>
    <g id="_013-jury" data-name="013-jury" transform="translate(836.952 196)">
      <g id="Group_346" data-name="Group 346" transform="translate(26.273 9.543)">
        <g id="Group_345" data-name="Group 345">
          <path id="Path_89" data-name="Path 89" d="M78.913,84.594l-3.3-1.65a.922.922,0,0,0-1.161.286l-1.539,2.129L71.375,83.23a.922.922,0,0,0-1.161-.286l-3.3,1.65a.922.922,0,0,0-.507.82v5.2a.922.922,0,0,0,.912.931H78.5a.922.922,0,0,0,.922-.922V85.414A.922.922,0,0,0,78.913,84.594Zm-1.3,5.105H68.251V86.013l2.092-1.041,1.843,2.534a.922.922,0,0,0,1.493,0l1.843-2.534,2.092,1.041Z" transform="translate(-66.408 -82.847)" fill="#5d5d5d"/>
        </g>
      </g>
      <g id="Group_348" data-name="Group 348" transform="translate(29.024 0)">
        <g id="Group_347" data-name="Group 347" transform="translate(0)">
          <path id="Path_90" data-name="Path 90" d="M94.235,0a3.76,3.76,0,0,0-3.941,3.569c-.006.124-.006.248,0,.372-.009,1.926,1.493,4.838,3.751,4.838S97.8,5.872,97.8,3.946A3.76,3.76,0,0,0,94.235,0Zm-.191,6.908c-.912,0-1.917-1.76-1.917-2.995a1.917,1.917,0,0,1,1.917-1.843V2.039a1.917,1.917,0,0,1,1.917,1.88C95.961,5.126,94.957,6.913,94.044,6.913Z" transform="translate(-90.289 0)" fill="#5d5d5d"/>
        </g>
      </g>
      <g id="Group_350" data-name="Group 350" transform="translate(42.427 9.543)">
        <g id="Group_349" data-name="Group 349">
          <path id="Path_91" data-name="Path 91" d="M219.153,84.594l-3.3-1.65a.922.922,0,0,0-1.161.286l-1.539,2.138-1.539-2.138a.922.922,0,0,0-1.161-.286l-3.3,1.65a.922.922,0,0,0-.507.82v5.2a.922.922,0,0,0,.912.931h11.178a.922.922,0,0,0,.922-.922V85.414A.922.922,0,0,0,219.153,84.594Zm-1.3,5.105h-9.363V86.013l2.092-1.041,1.843,2.534a.922.922,0,0,0,1.493,0l1.843-2.534,2.092,1.041Z" transform="translate(-206.648 -82.847)" fill="#5d5d5d"/>
        </g>
      </g>
      <g id="Group_352" data-name="Group 352" transform="translate(45.178 0)">
        <g id="Group_351" data-name="Group 351">
          <path id="Path_92" data-name="Path 92" d="M234.474,0a3.76,3.76,0,0,0-3.941,3.569q-.009.186,0,.372c-.009,1.926,1.493,4.838,3.751,4.838s3.76-2.912,3.76-4.838A3.76,3.76,0,0,0,234.474,0Zm-.2,6.908c-.912,0-1.908-1.76-1.908-2.995a1.917,1.917,0,0,1,1.917-1.843V2.039a1.917,1.917,0,0,1,1.908,1.88C236.191,5.126,235.186,6.913,234.274,6.913Z" transform="translate(-230.528 0)" fill="#5d5d5d"/>
        </g>
      </g>
      <g id="Group_354" data-name="Group 354" transform="translate(21.048 19.584)">
        <g id="Group_353" data-name="Group 353">
          <path id="Path_93" data-name="Path 93" d="M58.775,170.016H22.983a1.935,1.935,0,0,0-1.935,1.935v5.75a1.935,1.935,0,0,0,1.935,1.935H24.6V193a1.935,1.935,0,0,0,1.935,1.935H55.218A1.935,1.935,0,0,0,57.153,193V179.627h1.613a1.935,1.935,0,0,0,1.935-1.935v-5.759A1.935,1.935,0,0,0,58.775,170.016Zm.092,7.695a.092.092,0,0,1-.092.092H56.231a.922.922,0,0,0-.922.922V193a.092.092,0,0,1-.092.092H26.54a.092.092,0,0,1-.092-.092V178.706a.922.922,0,0,0-.922-.922H22.983a.092.092,0,0,1-.092-.092v-5.759a.092.092,0,0,1,.092-.092H58.775a.092.092,0,0,1,.092.092v5.778Z" transform="translate(-21.048 -170.016)" fill="#5d5d5d"/>
        </g>
      </g>
      <g id="Group_356" data-name="Group 356" transform="translate(30.024 25.676)">
        <g id="Group_355" data-name="Group 355" transform="translate(0)">
          <path id="Path_94" data-name="Path 94" d="M118.753,222.9H100.9a1.935,1.935,0,0,0-1.935,1.935v8.8a1.935,1.935,0,0,0,1.935,1.935h17.85a1.935,1.935,0,0,0,1.935-1.935v-8.8A1.935,1.935,0,0,0,118.753,222.9Zm.092,10.736a.092.092,0,0,1-.092.092H100.9a.092.092,0,0,1-.092-.092v-8.8a.092.092,0,0,1,.092-.092h17.85a.092.092,0,0,1,.092.092Z" transform="translate(-98.968 -222.896)" fill="#5d5d5d"/>
        </g>
      </g>
    </g>
  </g>
</svg>
