<svg xmlns="http://www.w3.org/2000/svg" width="35" height="35" viewBox="0 0 35 35">
  <g id="menu" transform="translate(-626 -52)">
    <g id="menu-2" data-name="menu" transform="translate(633.014 -16.498)">
      <g id="Group_328" data-name="Group 328" transform="translate(0 85.171)">
        <g id="Group_327" data-name="Group 327">
          <path id="Path_57" data-name="Path 57" d="M21.085,235.318H.888a.888.888,0,1,0,0,1.775h20.2a.888.888,0,1,0,0-1.775Z" transform="translate(0 -235.318)" fill="#fff"/>
        </g>
      </g>
      <g id="Group_330" data-name="Group 330" transform="translate(0 78.439)">
        <g id="Group_329" data-name="Group 329">
          <path id="Path_58" data-name="Path 58" d="M21.085,78.439H.888a.888.888,0,1,0,0,1.775h20.2a.888.888,0,1,0,0-1.775Z" transform="translate(0 -78.439)" fill="#fff"/>
        </g>
      </g>
      <g id="Group_332" data-name="Group 332" transform="translate(0 91.904)">
        <g id="Group_331" data-name="Group 331">
          <path id="Path_59" data-name="Path 59" d="M21.085,392.2H.888a.888.888,0,1,0,0,1.775h20.2a.888.888,0,1,0,0-1.775Z" transform="translate(0 -392.197)" fill="#fff"/>
        </g>
      </g>
    </g>
    <rect id="Rectangle_99" data-name="Rectangle 99" width="35" height="35" transform="translate(626 52)" fill="none"/>
  </g>
</svg>
