<svg xmlns="http://www.w3.org/2000/svg" width="35" height="35" viewBox="0 0 35 35">
  <g id="search" transform="translate(-718 -237)">
    <g id="search-2" data-name="search" transform="translate(725.09 244.439)">
      <path id="Path_13" data-name="Path 13" d="M14.637,22.774a7.989,7.989,0,0,0,5.2-1.894l6.315,6.315a.74.74,0,0,0,1.046,0,.74.74,0,0,0,0-1.046l-6.315-6.315a8.124,8.124,0,1,0-6.242,2.941Zm0-14.794a6.657,6.657,0,1,1-6.657,6.657A6.664,6.664,0,0,1,14.637,7.979Z" transform="translate(-6.5 -6.5)" fill="#fff"/>
    </g>
    <rect id="Rectangle_6" data-name="Rectangle 6" width="35" height="35" transform="translate(718 237)" fill="none"/>
  </g>
</svg>
