<svg xmlns="http://www.w3.org/2000/svg" width="35" height="35" viewBox="0 0 35 35">
  <g id="TAG" transform="translate(-573 -395)">
    <rect id="Rectangle_7" data-name="Rectangle 7" width="35" height="35" transform="translate(573 395)" fill="none"/>
    <g id="tag-2" data-name="tag" transform="translate(573.289 395.291)">
      <g id="Group_215" data-name="Group 215" transform="translate(6.485 6.485)">
        <path id="Path_52" data-name="Path 52" d="M27.12,17.253,16.57,6.7a.782.782,0,0,0-.611-.216l-7.908.9a.746.746,0,0,0-.665.665l-.9,7.908a.76.76,0,0,0,.216.611l10.55,10.55a.761.761,0,0,0,.539.216.793.793,0,0,0,.539-.216l8.807-8.807a.732.732,0,0,0,.216-.539A.864.864,0,0,0,27.12,17.253ZM8.033,15.762l.791-6.937,6.937-.791L22.933,15.2,15.2,22.933,8.033,15.762Zm9.759,9.759-1.51-1.51,7.728-7.728,1.51,1.51Z" transform="translate(-6.485 -6.485)"/>
        <path id="Path_53" data-name="Path 53" d="M32.348,28.345a2.855,2.855,0,0,0-2.031-.845,2.867,2.867,0,0,0-2.031,4.889,2.855,2.855,0,0,0,2.031.845,2.886,2.886,0,0,0,2.031-.845,2.842,2.842,0,0,0,0-4.044Zm-1.06,2.983a1.413,1.413,0,0,1-1.923,0,1.378,1.378,0,0,1,0-1.923,1.348,1.348,0,0,1,2.3.953A1.3,1.3,0,0,1,31.287,31.328Z" transform="translate(-23.682 -23.723)"/>
      </g>
    </g>
  </g>
</svg>
