<svg xmlns="http://www.w3.org/2000/svg" width="62" height="62" viewBox="0 0 62 62">
  <g id="tranhchaphopdong" transform="translate(-819 -288)">
    <rect id="Rectangle_12" data-name="Rectangle 12" width="62" height="62" transform="translate(819 288)" fill="none"/>
    <g id="_004-law" data-name="004-law" transform="translate(774.958 295.125)">
      <g id="Group_331" data-name="Group 331" transform="translate(58.48)">
        <g id="Group_330" data-name="Group 330" transform="translate(0)">
          <path id="Path_82" data-name="Path 82" d="M90.122,0H60.5A2.017,2.017,0,0,0,58.48,2.017V41A2.017,2.017,0,0,0,60.5,43.016h3.136v4.376a1.008,1.008,0,0,0,1.775.655l2.218-2.581,2.218,2.581a1.008,1.008,0,0,0,1.775-.655V43.016h18.5A2.017,2.017,0,0,0,92.139,41V2.017A2.017,2.017,0,0,0,90.122,0ZM68.392,43.228a1.008,1.008,0,0,0-1.533,0l-1.21,1.412V40.808a5.607,5.607,0,0,0,3.953,0V44.64Zm2.894-7.785a3.7,3.7,0,0,1-3.66,3.7h-.04a3.7,3.7,0,1,1,3.7-3.7ZM90.072,40.99H71.619V39.528a5.717,5.717,0,1,0-8.085-.1l.1.1V40.99H60.5V2.017H90.122Z" transform="translate(-58.48)" fill="#314870"/>
        </g>
      </g>
      <g id="Group_333" data-name="Group 333" transform="translate(65.538 7.976)">
        <g id="Group_332" data-name="Group 332" transform="translate(0)">
          <path id="Path_83" data-name="Path 83" d="M133.014,63.28H115.488a1.008,1.008,0,1,0,0,2.017h17.525a1.008,1.008,0,1,0,0-2.017Z" transform="translate(-114.48 -63.28)" fill="#314870"/>
        </g>
      </g>
      <g id="Group_335" data-name="Group 335" transform="translate(65.538 13.774)">
        <g id="Group_334" data-name="Group 334" transform="translate(0)">
          <path id="Path_84" data-name="Path 84" d="M133.014,109.28H115.488a1.008,1.008,0,1,0,0,2.017h17.525a1.008,1.008,0,1,0,0-2.017Z" transform="translate(-114.48 -109.28)" fill="#314870"/>
        </g>
      </g>
      <g id="Group_337" data-name="Group 337" transform="translate(65.538 19.572)">
        <g id="Group_336" data-name="Group 336" transform="translate(0)">
          <path id="Path_85" data-name="Path 85" d="M133.014,155.28H115.488a1.008,1.008,0,1,0,0,2.017h17.525a1.008,1.008,0,0,0,0-2.017Z" transform="translate(-114.48 -155.28)" fill="#314870"/>
        </g>
      </g>
      <g id="Group_339" data-name="Group 339" transform="translate(65.538 25.37)">
        <g id="Group_338" data-name="Group 338" transform="translate(0)">
          <path id="Path_86" data-name="Path 86" d="M133.014,201.28H115.488a1.008,1.008,0,1,0,0,2.017h17.525a1.008,1.008,0,0,0,0-2.017Z" transform="translate(-114.48 -201.28)" fill="#314870"/>
        </g>
      </g>
      <g id="Group_341" data-name="Group 341" transform="translate(75.057 31.168)">
        <g id="Group_340" data-name="Group 340" transform="translate(0)">
          <path id="Path_87" data-name="Path 87" d="M199.015,247.28h-8.006a1.008,1.008,0,1,0,0,2.017h8.006a1.008,1.008,0,1,0,0-2.017Z" transform="translate(-190 -247.28)" fill="#314870"/>
        </g>
      </g>
    </g>
  </g>
</svg>
