<svg xmlns="http://www.w3.org/2000/svg" width="62" height="62" viewBox="0 0 62 62">
  <g id="tuvandoanhnghiep" transform="translate(-764 -190)">
    <rect id="Rectangle_12" data-name="Rectangle 12" width="62" height="62" transform="translate(764 190)" fill="none"/>
    <g id="Group_343" data-name="Group 343" transform="translate(769 199)">
      <path id="Path_88" data-name="Path 88" d="M47.582,26.265H33.157V21.543a2.5,2.5,0,0,0-2.5-2.5H19.42a2.5,2.5,0,0,0-2.5,2.5v4.733H2.5a2.5,2.5,0,0,0-2.5,2.5v32.2a2.5,2.5,0,0,0,2.5,2.5H47.582a2.5,2.5,0,0,0,2.5-2.5V28.768A2.5,2.5,0,0,0,47.582,26.265Zm-28.293-.142.024-4.6a.13.13,0,0,1,.13-.13H30.7a.13.13,0,0,1,.13.13v4.6a.13.13,0,0,1-.13.13H19.42a.13.13,0,0,1-.13-.13ZM2.5,28.637H47.582c-1.115,2.112-6.916,12.1-17.711,14.5V41.757a2.5,2.5,0,0,0-2.456-2.5H22.67a2.5,2.5,0,0,0-2.5,2.5v1.4c-10.783-2.373-16.608-12.4-17.711-14.5ZM27.51,41.757v6.9a.13.13,0,0,1-.13.13H22.67a.13.13,0,0,1-.13-.13v-6.9a.13.13,0,0,1,.13-.13h4.745A.13.13,0,0,1,27.51,41.757Zm20.167,19.23a.13.13,0,0,1-.13.13H2.5a.13.13,0,0,1-.13-.13V33.074c2.918,4.235,8.731,10.677,17.794,12.5V48.65a2.5,2.5,0,0,0,2.5,2.5h4.745a2.5,2.5,0,0,0,2.5-2.5V45.577c9.063-1.8,14.876-8.3,17.794-12.5Z" transform="translate(0 -19.04)" fill="#314870"/>
    </g>
  </g>
</svg>
