<svg xmlns="http://www.w3.org/2000/svg" width="30" height="30" viewBox="0 0 30 30">
  <g id="vi_tri" data-name="vi tri" transform="translate(-407 -77)">
    <g id="placeholder" transform="translate(413.711 81.643)">
      <g id="Group_4" data-name="Group 4" transform="translate(0 0)">
        <path id="Path_10" data-name="Path 10" d="M26.553,6.4A8.374,8.374,0,0,0,18.2,14.771a8.488,8.488,0,0,0,.162,1.66c0,.036.018.072.018.126.92,4.132,7.4,10.338,7.668,10.591a.693.693,0,0,0,.505.2.775.775,0,0,0,.505-.2c.271-.271,6.712-6.459,7.632-10.5,0-.036.018-.072.018-.108A8.407,8.407,0,0,0,26.553,6.4Zm6.712,9.869v.054c-.686,2.995-5.178,7.722-6.712,9.255-1.534-1.534-6.044-6.261-6.73-9.328a.163.163,0,0,0-.018-.09,7.45,7.45,0,0,1-.144-1.407,6.883,6.883,0,1,1,13.6,1.516Z" transform="translate(-18.2 -6.4)" fill="#5d5d5d"/>
        <path id="Path_11" data-name="Path 11" d="M51.8,32.5a2.8,2.8,0,1,0,2.8,2.8A2.8,2.8,0,0,0,51.8,32.5Zm0,4.132A1.335,1.335,0,1,1,53.132,35.3,1.332,1.332,0,0,1,51.8,36.632Z" transform="translate(-43.443 -27.791)" fill="#5d5d5d"/>
      </g>
    </g>
    <rect id="Rectangle_5" data-name="Rectangle 5" width="30" height="30" transform="translate(407 77)" fill="none"/>
  </g>
</svg>
