<svg xmlns="http://www.w3.org/2000/svg" width="30" height="30" viewBox="0 0 30 30">
  <g id="website" transform="translate(-851 -77)">
    <rect id="Rectangle_22" data-name="Rectangle 22" width="30" height="30" transform="translate(851 77)" fill="none"/>
    <path id="internet" d="M16.509,15.705a9.42,9.42,0,0,0-.182-12.72h0l0,0A9.418,9.418,0,0,0,9.772.008h0L9.588,0c-.048,0-.1,0-.143,0S9.35,0,9.3,0l-.183,0h0a9.418,9.418,0,0,0-6.55,2.972l0,0h0a9.419,9.419,0,0,0-.183,12.72s0,.006,0,.009.014.012.021.02a9.424,9.424,0,0,0,6.712,3.148h0l.183,0,.143,0c.048,0,.1,0,.143,0l.183,0h0a9.423,9.423,0,0,0,6.717-3.154c0-.006.011-.007.015-.013S16.507,15.708,16.509,15.705ZM.66,9.771H4.569a12.036,12.036,0,0,0,.787,3.979A12.009,12.009,0,0,0,2.714,15.1,8.753,8.753,0,0,1,.66,9.771ZM2.891,3.59A11.98,11.98,0,0,0,5.464,4.854a12.027,12.027,0,0,0-.9,4.265H.66A8.755,8.755,0,0,1,2.891,3.59ZM18.23,9.119H14.321a12.027,12.027,0,0,0-.9-4.265A11.98,11.98,0,0,0,16,3.59,8.755,8.755,0,0,1,18.23,9.119ZM9.119,4.873A11.386,11.386,0,0,1,6.36,4.455,11.4,11.4,0,0,1,9.119.861Zm0,.651V9.119H5.22a11.375,11.375,0,0,1,.868-4.063A12.034,12.034,0,0,0,9.119,5.525Zm.651,0A12.024,12.024,0,0,0,12.8,5.056a11.375,11.375,0,0,1,.868,4.063h-3.9Zm0-.651V.861A11.4,11.4,0,0,1,12.53,4.455,11.386,11.386,0,0,1,9.771,4.873Zm3.39-.616A12.028,12.028,0,0,0,10.592.729a8.768,8.768,0,0,1,4.945,2.383A11.328,11.328,0,0,1,13.161,4.257Zm-7.432,0A11.318,11.318,0,0,1,3.354,3.112,8.767,8.767,0,0,1,8.3.729,12.023,12.023,0,0,0,5.729,4.257ZM5.22,9.771h3.9V13.04a12.012,12.012,0,0,0-3.146.5A11.374,11.374,0,0,1,5.22,9.771Zm3.9,3.921v4.338a11.39,11.39,0,0,1-2.893-3.881A11.356,11.356,0,0,1,9.119,13.691Zm.651,4.338V13.691a11.356,11.356,0,0,1,2.893.456A11.388,11.388,0,0,1,9.771,18.029Zm0-4.989V9.771h3.9a11.37,11.37,0,0,1-.753,3.771A12,12,0,0,0,9.771,13.04Zm4.551-3.269H18.23A8.751,8.751,0,0,1,16.176,15.1a12.009,12.009,0,0,0-2.642-1.345A12.028,12.028,0,0,0,14.321,9.771ZM3.156,15.583A11.351,11.351,0,0,1,5.6,14.352,12.018,12.018,0,0,0,8.3,18.161,8.775,8.775,0,0,1,3.156,15.583Zm7.436,2.578a12.011,12.011,0,0,0,2.694-3.81,11.358,11.358,0,0,1,2.448,1.231A8.775,8.775,0,0,1,10.592,18.161Z" transform="translate(857 83)" fill="#5d5d5d"/>
  </g>
</svg>
