<svg xmlns="http://www.w3.org/2000/svg" width="62" height="62" viewBox="0 0 62 62">
  <g id="dansu" transform="translate(-916 -187)">
    <rect id="Rectangle_12" data-name="Rectangle 12" width="62" height="62" transform="translate(916 187)" fill="none"/>
    <g id="_016-auction" data-name="016-auction" transform="translate(922 174.066)">
      <g id="Group_359" data-name="Group 359" transform="translate(6.169 21.934)">
        <g id="Group_358" data-name="Group 358" transform="translate(0 0)">
          <path id="Path_95" data-name="Path 95" d="M92.69,55.547a5.033,5.033,0,0,0-.559-.517l-19.6-16.847,2.016-2.152a5.88,5.88,0,0,0,.7.058,3.593,3.593,0,0,0,2.717-1.052c.974-1.061,1.169-2.707.477-4.635a13.39,13.39,0,0,0-3.447-5.044c-3.593-3.379-7.917-4.421-9.826-2.386a3.9,3.9,0,0,0-.779,3.477L55,36.43a3.9,3.9,0,0,0-3.428.974c-1.948,2.035-.594,6.281,3.009,9.66,2.357,2.211,5.025,3.418,7.119,3.418a3.593,3.593,0,0,0,2.707-1.042,3.9,3.9,0,0,0,.779-3.477L67.2,43.841,85.315,62.4a5.035,5.035,0,0,0,7.375-6.855ZM66.549,24.306c.974-1.052,4.217-.214,7.08,2.473a11.422,11.422,0,0,1,2.98,4.265c.428,1.188.4,2.152-.058,2.639a2.522,2.522,0,0,1-2.405.282l-7.713-7.235A2.522,2.522,0,0,1,66.549,24.306ZM62.985,48.145c-.974,1.052-4.217.214-7.08-2.473s-3.9-5.843-2.921-6.9a2.522,2.522,0,0,1,2.405-.282l7.722,7.235A2.512,2.512,0,0,1,62.985,48.145Zm2.853-5.687L64.28,44.133l-7.372-6.924,8.346-8.891,7.372,6.943-4.178,4.46ZM91.012,60.834A3.087,3.087,0,0,1,86.678,61L68.546,42.429,71.2,39.6,90.875,56.471A3.087,3.087,0,0,1,91.012,60.834Z" transform="translate(-50.681 -21.934)" fill="#c7ab50"/>
        </g>
      </g>
      <g id="Group_361" data-name="Group 361" transform="translate(0 56.683)">
        <g id="Group_360" data-name="Group 360" transform="translate(0)">
          <path id="Path_96" data-name="Path 96" d="M18.963,309.573l-.022,0h-.049v-.331a1.948,1.948,0,0,0-2.045-1.841H4.1a1.948,1.948,0,0,0-2.026,1.841v.331H2.026A1.87,1.87,0,0,0,0,311.276c0,.007,0,.015,0,.022v3.8a1.87,1.87,0,0,0,1.995,1.736l.031,0H18.941a1.87,1.87,0,0,0,2.023-1.7c0-.01,0-.021,0-.031v-3.8A1.87,1.87,0,0,0,18.963,309.573Zm.056,5.309H1.948v-3.36h1.1a.974.974,0,0,0,.974-.974v-1.2H16.944v1.188a.974.974,0,0,0,.974.974h1.1v3.369Z" transform="translate(0 -307.4)" fill="#c7ab50"/>
        </g>
      </g>
    </g>
  </g>
</svg>
