<svg xmlns="http://www.w3.org/2000/svg" width="35" height="35" viewBox="0 0 35 35">
  <g id="google" transform="translate(-919 -137)">
    <rect id="Rectangle_26" data-name="Rectangle 26" width="35" height="35" transform="translate(919 137)" fill="none"/>
    <g id="google-plus" transform="translate(925 143.001)">
      <g id="Group_26" data-name="Group 26" transform="translate(0 -0.001)">
        <circle id="XMLID_30_" cx="12" cy="12" r="12" transform="translate(0)" fill="#dc4e41"/>
      </g>
      <g id="Group_28" data-name="Group 28" transform="translate(4.175 7.581)">
        <path id="Path_34" data-name="Path 34" d="M19.52,40.4a4.945,4.945,0,0,0,3.336,4.678,4.88,4.88,0,0,0,5.334-1.422,5.593,5.593,0,0,0,1-3.957c-1.578-.014-3.156-.009-4.732-.007,0,.562,0,1.122,0,1.684.945.026,1.89.014,2.835.033a2.734,2.734,0,0,1-1.606,1.873,3.125,3.125,0,1,1-2.1-5.88,3.475,3.475,0,0,1,2.925.572c.439-.411.851-.851,1.254-1.295A4.974,4.974,0,0,0,19.52,40.4Z" transform="translate(-19.517 -35.446)" fill="#dc4e41"/>
        <path id="Path_35" data-name="Path 35" d="M73.867,48.668c0,.47-.01.943-.012,1.413-.473,0-.942.007-1.413.009V51.5c.47,0,.943,0,1.413.01,0,.47,0,.94.009,1.413.468,0,.938,0,1.408,0,0-.473,0-.942.01-1.415l1.413-.007V50.09c-.47,0-.942,0-1.413-.009,0-.47-.007-.943-.01-1.413Z" transform="translate(-61.121 -45.839)" fill="#dc4e41"/>
        <g id="Group_27" data-name="Group 27">
          <path id="Path_36" data-name="Path 36" d="M19.52,40.4a4.974,4.974,0,0,1,8.245-3.721c-.4.444-.815.883-1.254,1.295a3.475,3.475,0,0,0-2.925-.572,3.125,3.125,0,1,0,2.1,5.88A2.734,2.734,0,0,0,27.3,41.409c-.945-.019-1.89-.007-2.835-.033,0-.562,0-1.122,0-1.684,1.576,0,3.154-.007,4.732.007a5.591,5.591,0,0,1-1,3.957,4.88,4.88,0,0,1-5.334,1.422A4.945,4.945,0,0,1,19.52,40.4Z" transform="translate(-19.517 -35.445)" fill="#fff"/>
          <path id="Path_37" data-name="Path 37" d="M73.867,48.668h1.405c0,.47.007.943.01,1.413.47,0,.942.007,1.413.009V51.5l-1.413.007c0,.473-.007.942-.01,1.415-.47,0-.94,0-1.408,0,0-.473,0-.942-.009-1.413-.47,0-.942-.007-1.413-.01V50.09q.705,0,1.413-.009C73.857,49.611,73.862,49.138,73.867,48.668Z" transform="translate(-61.121 -45.839)" fill="#fff"/>
        </g>
      </g>
    </g>
  </g>
</svg>
