<svg xmlns="http://www.w3.org/2000/svg" xmlns:xlink="http://www.w3.org/1999/xlink" width="80" height="80" viewBox="0 0 80 80">
    <defs>
        <style>
            .cls-1{fill:#009245}.cls-2{fill:url(#linear-gradient)}.cls-3{fill:url(#linear-gradient-2)}.cls-4{fill:url(#linear-gradient-3)}.cls-5{fill:url(#linear-gradient-4)}.cls-6{fill:url(#linear-gradient-5)}.cls-7{fill:url(#linear-gradient-6)}.cls-8{fill:url(#linear-gradient-7)}.cls-9{fill:url(#linear-gradient-8)}.cls-10{fill:url(#linear-gradient-9)}.cls-11{fill:url(#linear-gradient-10)}.cls-12{fill:url(#linear-gradient-11)}.cls-13{fill:url(#linear-gradient-12)}.cls-14{fill:url(#linear-gradient-13)}.cls-15{fill:url(#linear-gradient-14)}.cls-16{fill:url(#linear-gradient-15)}.cls-17{fill:url(#linear-gradient-16)}
        </style>
        <linearGradient id="linear-gradient" x1=".145" x2=".911" y1=".975" y2="-.353" gradientUnits="objectBoundingBox">
            <stop offset="0" stop-color="#cd9e00"/>
            <stop offset=".052" stop-color="#d7ac05"/>
            <stop offset=".15" stop-color="#f2cf13"/>
            <stop offset=".16" stop-color="#f5d315"/>
            <stop offset=".173" stop-color="#e8bd0d"/>
            <stop offset=".188" stop-color="#ddac07"/>
            <stop offset=".206" stop-color="#d6a103"/>
            <stop offset=".232" stop-color="#d29a01"/>
            <stop offset=".305" stop-color="#d19800"/>
            <stop offset=".345" stop-color="#d29903"/>
            <stop offset=".378" stop-color="#d69d0e"/>
            <stop offset=".41" stop-color="#dba220"/>
            <stop offset=".441" stop-color="#e3aa39"/>
            <stop offset=".47" stop-color="#eeb559"/>
            <stop offset=".499" stop-color="#fac180"/>
            <stop offset=".508" stop-color="#ffc68e"/>
            <stop offset=".696" stop-color="#cc9a00"/>
            <stop offset=".85" stop-color="#f6c48c"/>
            <stop offset="1" stop-color="#dbaa27"/>
        </linearGradient>
        <linearGradient id="linear-gradient-2" x1="1.177" x2="-.03" y1="-.045" y2=".814" gradientUnits="objectBoundingBox">
            <stop offset="0" stop-color="#cd9e00"/>
            <stop offset=".195" stop-color="#f5c715"/>
            <stop offset=".386" stop-color="#d19800"/>
            <stop offset=".555" stop-color="#ffc68e"/>
            <stop offset=".682" stop-color="#cc9a00"/>
            <stop offset=".814" stop-color="#f6c48c"/>
            <stop offset="1" stop-color="#dbaa27"/>
        </linearGradient>
        <linearGradient id="linear-gradient-3" x1="1.382" x2="-.542" y1=".255" y2=".678" xlink:href="#linear-gradient-2"/>
        <linearGradient id="linear-gradient-4" x1="1.692" x2="-.201" y1=".05" y2=".665" xlink:href="#linear-gradient-2"/>
        <linearGradient id="linear-gradient-5" x1="1.415" x2="-.243" y1=".127" y2=".736" xlink:href="#linear-gradient-2"/>
        <linearGradient id="linear-gradient-6" x1="1.55" x2=".287" y1="-.039" y2=".643" xlink:href="#linear-gradient-2"/>
        <linearGradient id="linear-gradient-7" x1="1.284" x2=".376" y1="-.022" y2=".724" xlink:href="#linear-gradient-2"/>
        <linearGradient id="linear-gradient-8" x1="1.007" x2=".267" y1="-.023" y2=".969" gradientUnits="objectBoundingBox">
            <stop offset="0" stop-color="#cd9e00"/>
            <stop offset=".195" stop-color="#f5c715"/>
            <stop offset=".369" stop-color="#d19800"/>
            <stop offset=".555" stop-color="#ffc68e"/>
            <stop offset=".682" stop-color="#cc9a00"/>
            <stop offset=".814" stop-color="#f6c48c"/>
            <stop offset="1" stop-color="#dbaa27"/>
        </linearGradient>
        <linearGradient id="linear-gradient-9" x1=".916" x2=".063" y1="-.187" y2="1.095" gradientUnits="objectBoundingBox">
            <stop offset="0" stop-color="#cd9e00"/>
            <stop offset=".153" stop-color="#f5c715"/>
            <stop offset=".288" stop-color="#d19800"/>
            <stop offset=".555" stop-color="#ffc68e"/>
            <stop offset=".682" stop-color="#cc9a00"/>
            <stop offset=".839" stop-color="#f6c48c"/>
            <stop offset="1" stop-color="#dbaa27"/>
        </linearGradient>
        <linearGradient id="linear-gradient-10" x1="11.643" x2="10.435" y1="-.045" y2=".814" xlink:href="#linear-gradient-2"/>
        <linearGradient id="linear-gradient-11" x1="10.344" x2="8.42" y1=".255" y2=".678" xlink:href="#linear-gradient-2"/>
        <linearGradient id="linear-gradient-12" x1="9.668" x2="7.776" y1=".05" y2=".665" xlink:href="#linear-gradient-2"/>
        <linearGradient id="linear-gradient-13" x1="9.474" x2="7.815" y1=".127" y2=".736" xlink:href="#linear-gradient-2"/>
        <linearGradient id="linear-gradient-14" x1="7.925" x2="6.662" y1="-.039" y2=".643" xlink:href="#linear-gradient-2"/>
        <linearGradient id="linear-gradient-15" x1="6.521" x2="5.613" y1="-.022" y2=".724" xlink:href="#linear-gradient-2"/>
        <linearGradient id="linear-gradient-16" x1="6.071" x2="5.33" y1="-.023" y2=".969" xlink:href="#linear-gradient-8"/>
    </defs>
    <g id="XMLID_1_" transform="translate(-.029)">
        <g id="XMLID_27_" transform="translate(10.8 33.165)">
            <path id="XMLID_33_" d="M132.657 199v10.652h-5.777V226.8h-11.013v-17.148h-1.3L103.97 226.8H92.4v-20.759h3.611v17.151h5.94l10.6-17.151h6.933v17.151h3.791v-17.151h5.777v-3.43h-18.023L100.648 219.4h-1.21v-16.79H82.793l-2.13 3.43h8.124v20.76h-3.61v-17.148H74.2L80.771 199h22.278v9.406l5.958-9.406z" transform="translate(-74.2 -199)"/>
            <path id="XMLID_32_" d="M0 0" class="cls-1" transform="translate(17.656 27.802)"/>
            <path id="XMLID_31_" d="M0 0" class="cls-1" transform="translate(21.809 27.802)"/>
            <path id="XMLID_30_" d="M0 0" class="cls-1" transform="translate(21.809 27.802)"/>
            <path id="XMLID_29_" d="M158.383 219v3.43h-5.777v17.151h-3.791V222.43h-6.933l-10.6 17.151h-5.94V222.43h-3.611v20.762h-3.611V222.43H110l2.13-3.43h16.645v16.79h1.21L140.366 219z" class="cls-2" transform="translate(-103.537 -215.389)"/>
            <path id="XMLID_28_" d="M0 0" class="cls-1" transform="translate(34.807)"/>
        </g>
        <g id="XMLID_20_" transform="translate(17.967)">
            <path id="XMLID_21_" d="M125.888 22.025a.8.8 0 0 1-.812.722h-.036c-.054.9-.632 2.943-5.4 2.943-4.387 0-4.892-2.257-4.947-2.889a.852.852 0 0 1-.794-.776zM119.93 8.756l-5.615 13.089h.668l4.947-11.555 4.947 11.554h.668zm31.684-2.094c-1.444 0-2.365 1.661-5.2 1.625-1.661-.018-2.058-.289-2.112-.415a.713.713 0 0 0-.217-.4 4.825 4.825 0 0 0-.577-.472 5.783 5.783 0 0 1-1.751-1.878c0-.271.451-.939-.505-1.282-.921-.325-1.3.83-1.3.83h-2.744V3.593l.867-.83s-.108-.794-.812-.722c-.487.054-.614-1.318-.614-1.318l-.7-.668-.686.7s-.108 1.372-.6 1.318c-.7-.072-.83.722-.83.722l.849.812v1.087h-2.708s-.379-1.137-1.3-.83c-.939.325-.505 1.011-.505 1.282a5.783 5.783 0 0 1-1.751 1.878 2.791 2.791 0 0 0-.578.469.713.713 0 0 0-.217.4c-.036.144-.451.4-2.112.415-2.834.036-3.755-1.625-5.2-1.625a1.365 1.365 0 0 0-1.354.957 2.517 2.517 0 0 1 1.589.162 8.056 8.056 0 0 0 5.161 1.798c1.7 0 2.564-.271 4.315-2.022 1.751-1.769 4.838-1.444 4.838-1.444V7a2.1 2.1 0 0 0-.975 1.679 1.865 1.865 0 0 0 .975 1.589v12.4l-.686.505.686.451v2.455a5.738 5.738 0 0 0-2.6 3.647 2.3 2.3 0 0 0-2.419 2.564h12.24a2.315 2.315 0 0 0-2.419-2.564 5.814 5.814 0 0 0-2.618-3.647V23.65l.686-.451-.686-.505V10.29a1.9 1.9 0 0 0 .975-1.589 2.1 2.1 0 0 0-.975-1.679v-.884s3.105-.325 4.856 1.426 2.636 2.022 4.333 2.022a8.056 8.056 0 0 0 5.167-1.805 2.515 2.515 0 0 1 1.589-.162 1.4 1.4 0 0 0-1.375-.957zm-5.579 15.364a.8.8 0 0 0 .812.722h.036c.054.9.632 2.943 5.4 2.943 4.387 0 4.892-2.257 4.947-2.889a.852.852 0 0 0 .794-.776zm.361-.181h.668l4.947-11.554 4.947 11.554h.668l-5.615-13.107z" transform="translate(-113.9)"/>
        </g>
        <g id="XMLID_2_" transform="translate(.029 16.265)">
            <g id="XMLID_12_">
                <path id="XMLID_19_" d="M64.883 90.31a.132.132 0 0 0-.108-.217 11.07 11.07 0 0 0-6.914 4.243 11.915 11.915 0 0 0-2.365 5.6.221.221 0 0 0 .343.217 19.33 19.33 0 0 0 5.181-4.694 54.491 54.491 0 0 1 3.863-5.149z" class="cls-3" transform="translate(-45.48 -90.091)"/>
                <path id="XMLID_18_" d="M37.121 113.754a.177.177 0 0 0-.235-.235c-1.21.65-4.315 2.654-4.694 6.391a28.731 28.731 0 0 0 .126 7.962.177.177 0 0 0 .307.09 21.219 21.219 0 0 1 3.394-3.322c1.228-.758 6.463-5.542 6.084-8.2a.173.173 0 0 0-.289-.108 58.2 58.2 0 0 1-4.64 4.044 11.829 11.829 0 0 0-2.419 2.221.172.172 0 0 1-.307-.108c-.017-1.116.272-4.095 2.673-8.735z" class="cls-4" transform="translate(-26.222 -109.275)"/>
                <path id="XMLID_17_" d="M12.721 145.8a12.607 12.607 0 0 0-3 10.309 30.843 30.843 0 0 0 3.015 8.178 46.5 46.5 0 0 1 4.188-6.842c1.065-1.282 3.466-5.56 2.925-7.1 0 0-3.936 3.665-4.929 4.874a15.139 15.139 0 0 0-1.733 2.816 33.521 33.521 0 0 0-.542-5.091 36.653 36.653 0 0 1 .076-7.144z" class="cls-5" transform="translate(-7.816 -136.775)"/>
                <path id="XMLID_16_" d="M.942 205.555a16.321 16.321 0 0 0-.018 10.4c1.246 3.43 4.658 7.185 5.8 8.395a.188.188 0 0 0 .325-.144 17.031 17.031 0 0 1 1.318-7.113 26.016 26.016 0 0 0 1.48-9.749s-1.5 2.618-2.383 3.882-2.546 4.6-2.2 7.4a23.734 23.734 0 0 0-2.221-6.3 11.015 11.015 0 0 1-1.751-5.94c.008-1.481-.35-.831-.35-.831z" class="cls-6" transform="translate(-.063 -186.756)"/>
                <path id="XMLID_15_" d="M.06 270.809A12.91 12.91 0 0 0 4.266 281.1a31.464 31.464 0 0 0 8.341 5.488.194.194 0 0 0 .271-.235 20.6 20.6 0 0 1-1.336-6.03c.054-2.2-1.192-10.381-1.823-10.652-.6-.253-1.841 7.294-.957 11.5a.131.131 0 0 1-.217.126 63.248 63.248 0 0 0-4.929-5.6c-1.264-1.192-1.48-1.589-3.051-4.694-.397-.735-.505-.194-.505-.194z" class="cls-7" transform="translate(-.029 -240.456)"/>
                <path id="XMLID_14_" d="M18.831 321.594a.144.144 0 0 0-.253.126c.2 1.282.614 3.755 5.506 7.691 3.737 3 8.72 3.376 12.2 3.809a.156.156 0 0 0 .144-.253 18.754 18.754 0 0 1-3.141-5.272c-.993-2.961-2.347-8.395-5.272-9.947a.1.1 0 0 0-.144.108 32.656 32.656 0 0 1 .758 4.568 13.061 13.061 0 0 0 2.347 6.535c.09.108-.054.289-.162.217-2.866-1.697-8.191-3.321-11.983-7.582z" class="cls-8" transform="translate(-15.226 -280.985)"/>
                <path id="XMLID_13_" d="M55.84 368.376c-.072-.036-.325.054-.2.271.74 1.282 3.773 5.344 10.814 5.578a21.671 21.671 0 0 0 7.294-1.047 25.276 25.276 0 0 0 3.773-1.119.07.07 0 0 0-.018-.126 17.668 17.668 0 0 1-7.167-4.062c-3.214-3.123-5.055-5.217-6.03-5.272-.361-.018.217 1.625 1.607 3.845 1.571 2.473 2.058 3.7 4.188 4.531.09.036.054.162-.054.162-1.858-.016-10.632-.337-14.207-2.761z" class="cls-9" transform="translate(-45.573 -317.748)"/>
            </g>
            <path id="XMLID_11_" d="M141.148 416.641c-.032.108-1.1 3.737-7.671 3.737-2.735 0-4.661-.758-7.364-3.232-2.687-2.491-5.082-2.365-5.584-2.2a40.019 40.019 0 0 1 7.7 6.535l-1.521 1.607a54.841 54.841 0 0 0-8.238-7.781 54.842 54.842 0 0 0-8.238 7.781l-1.521-1.607a39.8 39.8 0 0 1 7.7-6.535c-.5-.162-2.9-.271-5.584 2.2-2.687 2.491-4.629 3.232-7.364 3.232-6.571 0-7.639-3.611-7.671-3.737 4.969 2.347 8.205 0 10.277-.794s3.512-2.2 6.668-2.437a10.234 10.234 0 0 1 4.9.614 3.136 3.136 0 0 0 1.635 0 10.285 10.285 0 0 1 4.9-.614c3.156.217 4.6 1.625 6.668 2.419 2.102.812 5.339 3.159 10.308.812z" class="cls-10" transform="translate(-78.51 -359.351)"/>
            <g id="XMLID_3_" transform="translate(48.018)">
                <path id="XMLID_10_" d="M364.568 90.31a.132.132 0 0 1 .108-.217 11.07 11.07 0 0 1 6.914 4.243 11.916 11.916 0 0 1 2.365 5.6.221.221 0 0 1-.343.217 19.33 19.33 0 0 1-5.181-4.694 54.488 54.488 0 0 0-3.863-5.149z" class="cls-11" transform="translate(-351.988 -90.091)"/>
                <path id="XMLID_9_" d="M389.094 113.754a.177.177 0 0 1 .235-.235c1.21.65 4.315 2.654 4.694 6.391a28.73 28.73 0 0 1-.126 7.962.177.177 0 0 1-.307.09 21.219 21.219 0 0 0-3.394-3.322c-1.228-.758-6.463-5.542-6.084-8.2a.173.173 0 0 1 .289-.108 58.2 58.2 0 0 0 4.64 4.044 11.828 11.828 0 0 1 2.419 2.221.172.172 0 0 0 .307-.108c.017-1.116-.272-4.095-2.673-8.735z" class="cls-12" transform="translate(-368.011 -109.275)"/>
                <path id="XMLID_8_" d="M412.275 145.8a12.607 12.607 0 0 1 3 10.309 30.842 30.842 0 0 1-3.015 8.178 46.494 46.494 0 0 0-4.188-6.842c-1.065-1.282-3.466-5.56-2.925-7.1 0 0 3.936 3.665 4.929 4.874a15.14 15.14 0 0 1 1.733 2.816 33.525 33.525 0 0 1 .542-5.091 36.651 36.651 0 0 0-.076-7.144z" class="cls-13" transform="translate(-385.198 -136.775)"/>
                <path id="XMLID_7_" d="M426.8 205.555a16.321 16.321 0 0 1 .018 10.4c-1.246 3.43-4.658 7.185-5.8 8.395a.188.188 0 0 1-.325-.144 17.03 17.03 0 0 0-1.318-7.113 26.016 26.016 0 0 1-1.48-9.749s1.5 2.618 2.383 3.882c.867 1.264 2.546 4.6 2.2 7.4a23.734 23.734 0 0 1 2.221-6.3 11.016 11.016 0 0 0 1.751-5.94c-.014-1.481.35-.831.35-.831z" class="cls-14" transform="translate(-395.694 -186.756)"/>
                <path id="XMLID_6_" d="M413.77 270.809a12.91 12.91 0 0 1-4.206 10.29 31.464 31.464 0 0 1-8.341 5.488.194.194 0 0 1-.271-.235 20.6 20.6 0 0 0 1.336-6.03c-.054-2.2 1.192-10.381 1.823-10.652.6-.253 1.841 7.294.957 11.5a.131.131 0 0 0 .217.126 63.254 63.254 0 0 1 4.929-5.6c1.264-1.192 1.48-1.589 3.051-4.694.396-.734.505-.193.505-.193z" class="cls-15" transform="translate(-381.819 -240.456)"/>
                <path id="XMLID_5_" d="M372.138 321.594a.144.144 0 0 1 .253.126c-.2 1.282-.614 3.755-5.506 7.691-3.737 3-8.72 3.376-12.2 3.809a.156.156 0 0 1-.144-.253 18.756 18.756 0 0 0 3.141-5.272c.993-2.961 2.347-8.395 5.272-9.947a.1.1 0 0 1 .144.108 32.652 32.652 0 0 0-.758 4.568 13.061 13.061 0 0 1-2.347 6.535c-.09.108.054.289.162.217 2.866-1.697 8.192-3.321 11.983-7.582z" class="cls-16" transform="translate(-343.761 -280.985)"/>
                <path id="XMLID_4_" d="M316.734 368.376c.072-.036.325.054.2.271-.74 1.282-3.773 5.344-10.814 5.578a21.671 21.671 0 0 1-7.294-1.047 25.275 25.275 0 0 1-3.773-1.119.07.07 0 0 1 .018-.126 17.668 17.668 0 0 0 7.167-4.062c3.214-3.123 5.055-5.217 6.03-5.272.361-.018-.217 1.625-1.607 3.845-1.571 2.473-2.058 3.7-4.188 4.531-.09.036-.054.162.054.162 1.858-.016 10.632-.337 14.207-2.761z" class="cls-17" transform="translate(-295.019 -317.748)"/>
            </g>
        </g>
    </g>
</svg>
