<svg xmlns="http://www.w3.org/2000/svg" width="13" height="10.464" viewBox="0 0 13 10.464">
  <g id="muitenfooter" transform="translate(-1069 -4758)">
    <g id="Group_419" data-name="Group 419" transform="translate(602 4669.464)">
      <g id="right-arrow" transform="translate(468.87 88.536)">
        <path id="Path_12" data-name="Path 12" d="M34.1,16.856a.442.442,0,0,1-.579,0,.345.345,0,0,1,0-.523l5.1-4.6-5.1-4.6a.345.345,0,0,1,0-.523.442.442,0,0,1,.579,0l5.385,4.862a.345.345,0,0,1,0,.523Z" transform="translate(-33.4 -6.5)" fill="#fff"/>
      </g>
      <rect id="Rectangle_4" data-name="Rectangle 4" width="10" height="9.536" transform="translate(467 89)" fill="none"/>
    </g>
    <g id="Group_420" data-name="Group 420" transform="translate(605 4669.464)">
      <g id="right-arrow-2" data-name="right-arrow" transform="translate(468.87 88.536)">
        <path id="Path_12-2" data-name="Path 12" d="M34.1,16.856a.442.442,0,0,1-.579,0,.345.345,0,0,1,0-.523l5.1-4.6-5.1-4.6a.345.345,0,0,1,0-.523.442.442,0,0,1,.579,0l5.385,4.862a.345.345,0,0,1,0,.523Z" transform="translate(-33.4 -6.5)" fill="#fff"/>
      </g>
      <rect id="Rectangle_4-2" data-name="Rectangle 4" width="10" height="9.536" transform="translate(467 89)" fill="none"/>
    </g>
  </g>
</svg>
