<svg xmlns="http://www.w3.org/2000/svg" width="35" height="35" viewBox="0 0 35 35">
  <g id="Twiter" transform="translate(-999 -137)">
    <rect id="Rectangle_28" data-name="Rectangle 28" width="35" height="35" transform="translate(999 137)" fill="none"/>
    <g id="twitter" transform="translate(1005 143)">
      <path id="Path_38" data-name="Path 38" d="M12,0A12,12,0,1,1,0,12,12,12,0,0,1,12,0Z" fill="#26a6d1"/>
      <path id="Path_39" data-name="Path 39" d="M77.962,83.318a5.975,5.975,0,0,1-1.68.448,2.861,2.861,0,0,0,1.286-1.571,5.929,5.929,0,0,1-1.858.689,2.962,2.962,0,0,0-2.134-.9,2.881,2.881,0,0,0-2.923,2.837,2.755,2.755,0,0,0,.076.647A8.388,8.388,0,0,1,64.7,82.507a2.757,2.757,0,0,0-.4,1.426,2.814,2.814,0,0,0,1.3,2.362,2.973,2.973,0,0,1-1.325-.355v.036a2.863,2.863,0,0,0,2.346,2.783,3.024,3.024,0,0,1-.77.1,2.948,2.948,0,0,1-.55-.051,2.917,2.917,0,0,0,2.732,1.971,5.978,5.978,0,0,1-3.632,1.215,6.152,6.152,0,0,1-.7-.04,8.463,8.463,0,0,0,4.483,1.276,8.137,8.137,0,0,0,8.321-8.076l-.008-.368A5.836,5.836,0,0,0,77.962,83.318Z" transform="translate(-58.46 -75.233)" fill="#fff"/>
    </g>
  </g>
</svg>
