<svg xmlns="http://www.w3.org/2000/svg" width="35" height="35" viewBox="0 0 35 35">
  <g id="youtube" transform="translate(-957 -137)">
    <rect id="Rectangle_27" data-name="Rectangle 27" width="35" height="35" transform="translate(957 137)" fill="none"/>
    <g id="youtube-2" data-name="youtube" transform="translate(963 143)">
      <path id="Path_40" data-name="Path 40" d="M12,0A12,12,0,1,1,0,12,12,12,0,0,1,12,0Z" fill="#c4302b"/>
      <path id="Path_41" data-name="Path 41" d="M70.211,59.915a1.413,1.413,0,0,0,.894-.292.856.856,0,0,0,.324-.709v-1.82a.8.8,0,0,0-.33-.659,1.353,1.353,0,0,0-.851-.255,1.524,1.524,0,0,0-.906.241.762.762,0,0,0-.338.652V58.9a.872.872,0,0,0,.328.715A1.366,1.366,0,0,0,70.211,59.915Zm-.4-2.753a.2.2,0,0,1,.107-.169.541.541,0,0,1,.279-.064.611.611,0,0,1,.3.064.192.192,0,0,1,.114.169v1.729a.229.229,0,0,1-.113.2.554.554,0,0,1-.3.073.482.482,0,0,1-.287-.072.235.235,0,0,1-.1-.2Zm2.908,2.751a.936.936,0,0,0,.41-.153,1.535,1.535,0,0,0,.409-.34v.4h.709V56.175h-.709v2.77a1,1,0,0,1-.218.2.4.4,0,0,1-.2.077.166.166,0,0,1-.144-.058.3.3,0,0,1-.046-.186v-2.8h-.707v3.049a.8.8,0,0,0,.124.488A.465.465,0,0,0,72.722,59.913Zm2.061,1.508H66.218a2.419,2.419,0,0,0-2.465,2.369v2a2.419,2.419,0,0,0,2.465,2.369h8.565a2.419,2.419,0,0,0,2.465-2.369v-2A2.419,2.419,0,0,0,74.783,61.421Zm-7.291,2.032h-.757V66.59H66V63.453h-.758v-.535h2.248S67.492,63.453,67.492,63.453Zm2.261,3.18h-.79v-.326a1.686,1.686,0,0,1-.457.274,1.2,1.2,0,0,1-.458.1.572.572,0,0,1-.412-.133.525.525,0,0,1-.139-.4V63.671h.79v2.272a.206.206,0,0,0,.048.152.233.233,0,0,0,.163.046.545.545,0,0,0,.22-.062,1.012,1.012,0,0,0,.245-.159V63.67h.79S69.753,66.634,69.753,66.634Zm2.989-.564a.553.553,0,0,1-.184.446.793.793,0,0,1-.529.155,1.288,1.288,0,0,1-.409-.059,1.028,1.028,0,0,1-.334-.186v.21H70.5V62.919h.788v1.2a1.284,1.284,0,0,1,.334-.19,1.027,1.027,0,0,1,.36-.065.82.82,0,0,1,.565.174.652.652,0,0,1,.2.513Zm3-.836H74.292v.535a.486.486,0,0,0,.074.311.33.33,0,0,0,.258.086.378.378,0,0,0,.266-.073.481.481,0,0,0,.077-.325v-.129h.782v.145a.774.774,0,0,1-.287.658,1.386,1.386,0,0,1-.854.22,1.259,1.259,0,0,1-.805-.234.778.778,0,0,1-.294-.644V64.509a.714.714,0,0,1,.324-.6,1.391,1.391,0,0,1,.832-.232,1.3,1.3,0,0,1,.8.215.734.734,0,0,1,.28.619S75.747,65.233,75.747,65.233Zm-8.679-5.31h.895v-2.18L69,54.668h-.91l-.554,2.1h-.057l-.58-2.1H66l1.066,3.173S67.068,59.923,67.068,59.923ZM71.613,64.3l-.166.027-.161.083v1.708a.687.687,0,0,0,.185.1l.188.029a.312.312,0,0,0,.211-.058.237.237,0,0,0,.067-.188V64.578a.26.26,0,0,0-.082-.211A.37.37,0,0,0,71.613,64.3Z" transform="translate(-58.501 -50.164)" fill="#fff"/>
      <path id="Path_42" data-name="Path 42" d="M192.446,170.021a.361.361,0,0,0-.261.078.344.344,0,0,0-.078.255v.287h.673v-.287a.286.286,0,0,0-.334-.333Z" transform="translate(-176.28 -156.014)" fill="#fff"/>
    </g>
  </g>
</svg>
